[img]http://noob.hu/2010/12/04/LEG.jpg[/img] 
http://www.thedesiadda.com/


imdb:-  http://www.imdb.com/title/tt1219342/
General
Complete name                    : Legend of the Guardians 2010 Dvdrip -jammo.avi
Format                           : AVI
Format/Info                      : Audio Video Interleave
Format profile                   : OpenDML
File size                        : 1.39 GiB
Duration                         : 1h 36mn
Overall bit rate                 : 2 054 Kbps
Writing application              : Lavf51.12.1

Video
ID                               : 0
Format                           : MPEG-4 Visual
Format profile                   : Advanced Simple@L5
Format settings, BVOP            : Yes
Format settings, QPel            : No
Format settings, GMC             : No warppoints
Format settings, Matrix          : Default (H.263)
Codec ID                         : XVID
Codec ID/Hint                    : XviD
Duration                         : 1h 36mn
Bit rate                         : 1 816 Kbps
Width                            : 720 pixels
Height                           : 480 pixels
Display aspect ratio             : 16:9
Frame rate                       : 23.976 fps
Standard                         : NTSC
Color space                      : YUV
Chroma subsampling               : 4:2:0
Bit depth                        : 8 bits
Scan type                        : Progressive
Compression mode                 : Lossy
Bits/(Pixel*Frame)               : 0.219
Stream size                      : 1.23 GiB (88%)
Writing library                  : XviD 1.1.2 (UTC 2006-11-01)

Audio
ID                               : 1
Format                           : MPEG Audio
Format version                   : Version 1
Format profile                   : Layer 3
Mode                             : Joint stereo
Codec ID                         : 55
Codec ID/Hint                    : MP3
Duration                         : 26mn 14s
Bit rate mode                    : Constant
Bit rate                         : 224 Kbps
Channel(s)                       : 2 channels
Sampling rate                    : 44.1 KHz
Compression mode                 : Lossy
Stream size                      : 42.0 MiB (3%)
Alignment                        : Aligned on interleaves
Interleave, duration             : 96 ms (2.31 video frames)
Interleave, preload duration     : 26 ms
Writing library                  : LAME3.97 (beta) 
http://noob.hu/2010/12/04/led1.jpg 
http://noob.hu/2010/12/04/led2.jpg 
http://noob.hu/2010/12/04/led5.jpg

[img]http://noob.hu/2010/12/04/led7.jpg[/img]